<?xml version="1.0" encoding="UTF-8"?>
<svg xmlns="http://www.w3.org/2000/svg" xmlns:xlink="http://www.w3.org/1999/xlink" width="50pt" height="50pt" viewBox="0 0 50 50" version="1.1">
<g id="surface2594264">
<path style=" stroke:none;fill-rule:nonzero;fill:rgb(34.117647%,14.117647%,77.647059%);fill-opacity:1;" d="M 25 2 C 12.308594 2 2 12.308594 2 25 C 2 37.691406 12.308594 48 25 48 C 37.691406 48 48 37.691406 48 25 C 48 12.308594 37.691406 2 25 2 Z M 25 4 C 36.609375 4 46 13.390625 46 25 C 46 36.609375 36.609375 46 25 46 C 13.390625 46 4 36.609375 4 25 C 4 13.390625 13.390625 4 25 4 Z M 24.984375 16.988281 C 24.433594 16.996094 23.992188 17.449219 24 18 L 24 24 L 18 24 C 17.640625 23.996094 17.304688 24.183594 17.121094 24.496094 C 16.941406 24.808594 16.941406 25.191406 17.121094 25.503906 C 17.304688 25.816406 17.640625 26.003906 18 26 L 24 26 L 24 32 C 23.996094 32.359375 24.183594 32.695312 24.496094 32.878906 C 24.808594 33.058594 25.191406 33.058594 25.503906 32.878906 C 25.816406 32.695312 26.003906 32.359375 26 32 L 26 26 L 32 26 C 32.359375 26.003906 32.695312 25.816406 32.878906 25.503906 C 33.058594 25.191406 33.058594 24.808594 32.878906 24.496094 C 32.695312 24.183594 32.359375 23.996094 32 24 L 26 24 L 26 18 C 26.003906 17.730469 25.898438 17.46875 25.707031 17.277344 C 25.515625 17.085938 25.253906 16.980469 24.984375 16.988281 Z M 24.984375 16.988281 "/>
</g>
</svg>
