<?xml version="1.0" encoding="UTF-8"?>
<svg xmlns="http://www.w3.org/2000/svg" xmlns:xlink="http://www.w3.org/1999/xlink" width="100pt" height="100pt" viewBox="0 0 100 100" version="1.1">
<g id="surface1546650">
<path style=" stroke:none;fill-rule:nonzero;fill:rgb(34.117647%,14.117647%,77.647059%);fill-opacity:1;" d="M 48.4375 3.125 C 23.457031 3.125 3.125 23.449219 3.125 48.4375 C 3.125 73.425781 23.457031 93.75 48.4375 93.75 C 73.417969 93.75 93.75 73.425781 93.75 48.4375 C 93.75 23.449219 73.417969 3.125 48.4375 3.125 Z M 48.4375 6.25 C 71.699219 6.25 90.625 25.175781 90.625 48.4375 C 90.625 71.699219 71.699219 90.625 48.4375 90.625 C 25.175781 90.625 6.25 71.699219 6.25 48.4375 C 6.25 25.175781 25.175781 6.25 48.4375 6.25 Z M 47.753906 12.511719 C 38.550781 12.695312 29.625 16.425781 23.023438 23.023438 C 9.015625 37.035156 9.015625 59.832031 23.023438 73.847656 C 23.328125 74.152344 23.730469 74.304688 24.128906 74.304688 C 24.53125 74.304688 24.933594 74.152344 25.238281 73.847656 C 25.847656 73.234375 25.847656 72.246094 25.238281 71.636719 C 12.4375 58.84375 12.445312 38.03125 25.238281 25.238281 C 32.652344 17.816406 43.28125 14.378906 53.65625 16.039062 C 54.503906 16.179688 55.308594 15.59375 55.445312 14.746094 C 55.585938 13.890625 55 13.085938 54.152344 12.953125 C 52.019531 12.609375 49.882812 12.464844 47.753906 12.511719 Z M 60.398438 14.667969 C 59.796875 14.691406 59.234375 15.074219 59.007812 15.679688 C 58.703125 16.492188 59.113281 17.390625 59.925781 17.695312 C 61.042969 18.109375 62.140625 18.589844 63.207031 19.121094 C 63.433594 19.238281 63.671875 19.292969 63.910156 19.292969 C 64.476562 19.292969 65.027344 18.980469 65.308594 18.433594 C 65.691406 17.664062 65.382812 16.722656 64.613281 16.332031 C 63.453125 15.746094 62.238281 15.222656 61.015625 14.765625 C 60.816406 14.691406 60.609375 14.660156 60.402344 14.667969 Z M 69.425781 19.804688 C 69.03125 19.855469 68.652344 20.050781 68.382812 20.390625 C 67.851562 21.070312 67.96875 22.050781 68.652344 22.582031 C 69.695312 23.402344 70.695312 24.292969 71.636719 25.238281 C 84.4375 38.03125 84.4375 58.84375 71.636719 71.636719 C 71.027344 72.253906 71.027344 73.234375 71.636719 73.851562 C 71.941406 74.152344 72.34375 74.308594 72.746094 74.308594 C 73.144531 74.308594 73.546875 74.152344 73.851562 73.851562 C 87.859375 59.839844 87.859375 37.035156 73.851562 23.023438 C 72.820312 21.996094 71.722656 21.019531 70.582031 20.125 C 70.238281 19.859375 69.816406 19.757812 69.425781 19.804688 Z M 35.179688 33.617188 C 34.785156 33.617188 34.382812 33.769531 34.074219 34.074219 C 33.464844 34.6875 33.464844 35.675781 34.074219 36.285156 L 46.226562 48.4375 L 34.074219 60.589844 C 33.464844 61.199219 33.464844 62.1875 34.074219 62.800781 C 34.382812 63.105469 34.777344 63.257812 35.179688 63.257812 C 35.582031 63.257812 35.980469 63.105469 36.285156 62.800781 L 48.4375 50.648438 L 60.589844 62.800781 C 60.894531 63.105469 61.292969 63.257812 61.695312 63.257812 C 62.097656 63.257812 62.492188 63.105469 62.800781 62.800781 C 63.410156 62.1875 63.410156 61.199219 62.800781 60.589844 L 50.648438 48.4375 L 62.800781 36.285156 C 63.410156 35.675781 63.410156 34.6875 62.800781 34.074219 C 62.1875 33.464844 61.199219 33.464844 60.589844 34.074219 L 48.4375 46.226562 L 36.285156 34.074219 C 35.980469 33.769531 35.578125 33.617188 35.179688 33.617188 Z M 33.398438 74.054688 C 32.789062 73.980469 32.171875 74.261719 31.855469 74.824219 L 30.292969 77.53125 C 29.859375 78.277344 30.113281 79.230469 30.859375 79.664062 C 31.101562 79.804688 31.371094 79.875 31.640625 79.875 C 32.175781 79.875 32.703125 79.597656 32.988281 79.09375 L 34.550781 76.386719 C 34.984375 75.640625 34.734375 74.683594 33.984375 74.25 C 33.796875 74.144531 33.59375 74.078125 33.398438 74.054688 Z M 63.476562 74.054688 C 63.273438 74.078125 63.074219 74.144531 62.890625 74.25 C 62.140625 74.683594 61.890625 75.640625 62.324219 76.390625 L 63.886719 79.09375 C 64.171875 79.597656 64.699219 79.875 65.234375 79.875 C 65.503906 79.875 65.773438 79.808594 66.015625 79.664062 C 66.765625 79.234375 67.015625 78.277344 66.582031 77.53125 L 65.019531 74.828125 C 64.699219 74.269531 64.082031 73.980469 63.476562 74.054688 Z M 40.339844 77.101562 C 39.734375 77.183594 39.207031 77.617188 39.039062 78.246094 L 38.234375 81.269531 C 38.007812 82.097656 38.507812 82.953125 39.335938 83.179688 C 39.472656 83.214844 39.605469 83.234375 39.746094 83.234375 C 40.429688 83.234375 41.066406 82.769531 41.253906 82.074219 L 42.066406 79.050781 C 42.285156 78.222656 41.789062 77.363281 40.960938 77.140625 C 40.746094 77.082031 40.539062 77.070312 40.339844 77.097656 Z M 56.542969 77.101562 C 56.339844 77.070312 56.128906 77.082031 55.914062 77.140625 C 55.085938 77.363281 54.589844 78.222656 54.808594 79.054688 L 55.621094 82.074219 C 55.808594 82.769531 56.4375 83.234375 57.128906 83.234375 C 57.269531 83.234375 57.402344 83.214844 57.539062 83.179688 C 58.367188 82.953125 58.867188 82.097656 58.644531 81.269531 L 57.835938 78.246094 C 57.667969 77.617188 57.140625 77.183594 56.542969 77.101562 Z M 48.4375 78.125 C 47.570312 78.125 46.875 78.828125 46.875 79.6875 L 46.875 82.8125 C 46.875 83.671875 47.570312 84.375 48.4375 84.375 C 49.304688 84.375 50 83.671875 50 82.8125 L 50 79.6875 C 50 78.828125 49.304688 78.125 48.4375 78.125 Z M 48.4375 78.125 "/>
</g>
</svg>
