<?xml version="1.0" encoding="UTF-8"?>
<svg xmlns="http://www.w3.org/2000/svg" xmlns:xlink="http://www.w3.org/1999/xlink" width="32pt" height="32pt" viewBox="0 0 32 32" version="1.1">
<g id="surface2594789">
<path style=" stroke:none;fill-rule:nonzero;fill:rgb(34.117647%,14.117647%,77.647059%);fill-opacity:1;" d="M 14 4 C 12.839844 4 12 4.839844 12 6 L 12 7 L 6 7 L 6 9 L 7 9 L 7 25 C 7 26.652344 8.347656 28 10 28 L 19.773438 28 L 21.773438 26 L 10 26 C 9.449219 26 9 25.550781 9 25 L 9 9 L 23 9 L 23 18.671875 L 25 20.671875 L 25 9 L 26 9 L 26 7 L 20 7 L 20 6 C 20 4.839844 19.160156 4 18 4 Z M 14 6 L 18 6 L 18 7 L 14 7 Z M 11 12 L 11 23 L 13 23 L 13 12 Z M 15 12 L 15 23 L 17 23 L 17 12 Z M 19 12 L 19 19.472656 L 21 17.472656 L 21 12 Z M 21.402344 19.902344 L 20 21.300781 L 24.652344 25.949219 L 20 30.597656 L 21.402344 32 L 26.050781 27.347656 L 30.597656 31.902344 L 32 30.5 L 27.449219 25.949219 L 32 21.402344 L 30.597656 20 L 26.050781 24.550781 Z M 21.402344 19.902344 "/>
</g>
</svg>
