<?xml version="1.0" encoding="UTF-8"?>
<svg xmlns="http://www.w3.org/2000/svg" xmlns:xlink="http://www.w3.org/1999/xlink" width="50pt" height="50pt" viewBox="0 0 50 50" version="1.1">
<g id="surface2673917">
<rect x="0" y="0" width="50" height="50" style="fill:rgb(34.117647%,14.117647%,77.647059%);fill-opacity:1;stroke:none;"/>
<path style=" stroke:none;fill-rule:nonzero;fill:rgb(100%,100%,100%);fill-opacity:1;" d="M 5 8 C 4.277344 7.988281 3.609375 8.367188 3.246094 8.992188 C 2.878906 9.613281 2.878906 10.386719 3.246094 11.007812 C 3.609375 11.632812 4.277344 12.011719 5 12 L 45 12 C 45.722656 12.011719 46.390625 11.632812 46.753906 11.007812 C 47.121094 10.386719 47.121094 9.613281 46.753906 8.992188 C 46.390625 8.367188 45.722656 7.988281 45 8 Z M 5 23 C 4.277344 22.988281 3.609375 23.367188 3.246094 23.992188 C 2.878906 24.613281 2.878906 25.386719 3.246094 26.007812 C 3.609375 26.632812 4.277344 27.011719 5 27 L 45 27 C 45.722656 27.011719 46.390625 26.632812 46.753906 26.007812 C 47.121094 25.386719 47.121094 24.613281 46.753906 23.992188 C 46.390625 23.367188 45.722656 22.988281 45 23 Z M 5 38 C 4.277344 37.988281 3.609375 38.367188 3.246094 38.992188 C 2.878906 39.613281 2.878906 40.386719 3.246094 41.007812 C 3.609375 41.632812 4.277344 42.011719 5 42 L 45 42 C 45.722656 42.011719 46.390625 41.632812 46.753906 41.007812 C 47.121094 40.386719 47.121094 39.613281 46.753906 38.992188 C 46.390625 38.367188 45.722656 37.988281 45 38 Z M 5 38 "/>
</g>
</svg>
