<?xml version="1.0"?>
<svg xmlns="http://www.w3.org/2000/svg" xmlns:xlink="http://www.w3.org/1999/xlink" version="1.1" viewBox="0 0 172 172" width="128px" height="128px"><g fill="none" fill-rule="nonzero" stroke="none" stroke-width="1" stroke-linecap="butt" stroke-linejoin="miter" stroke-miterlimit="10" stroke-dasharray="" stroke-dashoffset="0" font-family="none" font-weight="none" font-size="none" text-anchor="none" style="mix-blend-mode: normal"><path d="M0,172v-172h172v172z" fill="none"/><g fill="#1abc9c"><g id="surface1"><path d="M13.4375,26.875c-4.56665,0 -8.0625,3.49585 -8.0625,8.0625v104.8125c0,5.9104 4.8396,10.75 10.75,10.75h145.125c5.9104,0 10.75,-4.8396 10.75,-10.75v-77.9375c0,-4.56665 -3.49585,-8.0625 -8.0625,-8.0625h-8.0625v-2.6875c0,-4.56665 -3.49585,-8.0625 -8.0625,-8.0625h-67.99585c-2.1521,0 -4.03125,-0.80835 -5.64795,-2.42505l-9.93115,-9.93115c-2.42505,-2.42505 -5.9209,-3.7688 -9.40625,-3.7688zM13.4375,32.25h41.3938c2.1416,0 4.02075,0.80835 5.63745,2.42505l9.94165,9.93115c2.41455,2.42505 5.9104,3.7688 9.40625,3.7688h67.99585c1.6167,0 2.6875,1.0708 2.6875,2.6875v88.6875c0,1.6167 0.5354,3.49585 1.6062,5.375h-135.9812c-2.96045,0 -5.375,-2.41455 -5.375,-5.375v-16.125h110.1875c1.6167,0 2.6875,-1.0708 2.6875,-2.6875c0,-1.6167 -1.0708,-2.6875 -2.6875,-2.6875h-110.1875v-83.3125c0,-1.6167 1.0708,-2.6875 2.6875,-2.6875zM155.875,59.125h8.0625c1.6167,0 2.6875,1.0708 2.6875,2.6875v77.9375c0,2.96045 -2.41455,5.375 -5.375,5.375c-3.2229,0 -5.375,-3.7583 -5.375,-5.375zM29.5625,64.5c-1.6167,0 -2.6875,1.0708 -2.6875,2.6875c0,1.6167 1.0708,2.6875 2.6875,2.6875h26.875c1.6167,0 2.6875,-1.0708 2.6875,-2.6875c0,-1.6167 -1.0708,-2.6875 -2.6875,-2.6875zM67.1875,64.5c-1.6167,0 -2.6875,1.0708 -2.6875,2.6875c0,1.6167 1.0708,2.6875 2.6875,2.6875h16.125c1.6167,0 2.6875,-1.0708 2.6875,-2.6875c0,-1.6167 -1.0708,-2.6875 -2.6875,-2.6875zM29.5625,75.25c-1.6167,0 -2.6875,1.0708 -2.6875,2.6875c0,1.6167 1.0708,2.6875 2.6875,2.6875h10.75c1.6167,0 2.6875,-1.0708 2.6875,-2.6875c0,-1.6167 -1.0708,-2.6875 -2.6875,-2.6875zM51.0625,75.25c-1.6167,0 -2.6875,1.0708 -2.6875,2.6875c0,1.6167 1.0708,2.6875 2.6875,2.6875h18.8125c1.6167,0 2.6875,-1.0708 2.6875,-2.6875c0,-1.6167 -1.0708,-2.6875 -2.6875,-2.6875zM131.6875,118.25c-1.6167,0 -2.6875,1.0708 -2.6875,2.6875c0,1.6167 1.0708,2.6875 2.6875,2.6875h10.75c1.6167,0 2.6875,-1.0708 2.6875,-2.6875c0,-1.6167 -1.0708,-2.6875 -2.6875,-2.6875zM18.8125,129c-1.6167,0 -2.6875,1.0708 -2.6875,2.6875v5.375c0,1.6167 1.0708,2.6875 2.6875,2.6875c1.6167,0 2.6875,-1.0708 2.6875,-2.6875v-5.375c0,-1.6167 -1.0708,-2.6875 -2.6875,-2.6875zM32.25,129c-1.6167,0 -2.6875,1.0708 -2.6875,2.6875v5.375c0,1.6167 1.0708,2.6875 2.6875,2.6875c1.6167,0 2.6875,-1.0708 2.6875,-2.6875v-5.375c0,-1.6167 -1.0708,-2.6875 -2.6875,-2.6875zM45.6875,129c-1.6167,0 -2.6875,1.0708 -2.6875,2.6875v5.375c0,1.6167 1.0708,2.6875 2.6875,2.6875c1.6167,0 2.6875,-1.0708 2.6875,-2.6875v-5.375c0,-1.6167 -1.0708,-2.6875 -2.6875,-2.6875zM59.125,129c-1.6167,0 -2.6875,1.0708 -2.6875,2.6875v5.375c0,1.6167 1.0708,2.6875 2.6875,2.6875c1.6167,0 2.6875,-1.0708 2.6875,-2.6875v-5.375c0,-1.6167 -1.0708,-2.6875 -2.6875,-2.6875zM72.5625,129c-1.6167,0 -2.6875,1.0708 -2.6875,2.6875v5.375c0,1.6167 1.0708,2.6875 2.6875,2.6875c1.6167,0 2.6875,-1.0708 2.6875,-2.6875v-5.375c0,-1.6167 -1.0708,-2.6875 -2.6875,-2.6875zM86,129c-1.6167,0 -2.6875,1.0708 -2.6875,2.6875v5.375c0,1.6167 1.0708,2.6875 2.6875,2.6875c1.6167,0 2.6875,-1.0708 2.6875,-2.6875v-5.375c0,-1.6167 -1.0708,-2.6875 -2.6875,-2.6875zM99.4375,129c-1.6167,0 -2.6875,1.0708 -2.6875,2.6875v5.375c0,1.6167 1.0708,2.6875 2.6875,2.6875c1.6167,0 2.6875,-1.0708 2.6875,-2.6875v-5.375c0,-1.6167 -1.0708,-2.6875 -2.6875,-2.6875zM112.875,129c-1.6167,0 -2.6875,1.0708 -2.6875,2.6875v5.375c0,1.6167 1.0708,2.6875 2.6875,2.6875c1.6167,0 2.6875,-1.0708 2.6875,-2.6875v-5.375c0,-1.6167 -1.0708,-2.6875 -2.6875,-2.6875zM126.3125,129c-1.6167,0 -2.6875,1.0708 -2.6875,2.6875v5.375c0,1.6167 1.0708,2.6875 2.6875,2.6875c1.6167,0 2.6875,-1.0708 2.6875,-2.6875v-5.375c0,-1.6167 -1.0708,-2.6875 -2.6875,-2.6875zM139.75,129c-1.6167,0 -2.6875,1.0708 -2.6875,2.6875v5.375c0,1.6167 1.0708,2.6875 2.6875,2.6875c1.6167,0 2.6875,-1.0708 2.6875,-2.6875v-5.375c0,-1.6167 -1.0708,-2.6875 -2.6875,-2.6875z"/></g></g></g></svg>
