<svg fill="#5724C6" xmlns="http://www.w3.org/2000/svg" viewBox="0 0 80 80" width="80px" height="80px"><path d="M 15 9 L 15 71 L 65 71 L 65 23.585938 L 50.414063 9 Z M 17 11 L 49 11 L 49 25 L 63 25 L 63 69 L 17 69 Z M 51 12.414063 L 61.585938 23 L 51 23 Z M 22 13 C 21.449219 13 21 13.449219 21 14 C 21 14.550781 21.449219 15 22 15 C 22.550781 15 23 14.550781 23 14 C 23 13.449219 22.550781 13 22 13 Z M 22 17 C 21.449219 17 21 17.449219 21 18 C 21 18.550781 21.449219 19 22 19 C 22.550781 19 23 18.550781 23 18 C 23 17.449219 22.550781 17 22 17 Z M 22 21 C 21.449219 21 21 21.449219 21 22 C 21 22.550781 21.449219 23 22 23 C 22.550781 23 23 22.550781 23 22 C 23 21.449219 22.550781 21 22 21 Z M 22 25 C 21.449219 25 21 25.449219 21 26 C 21 26.550781 21.449219 27 22 27 C 22.550781 27 23 26.550781 23 26 C 23 25.449219 22.550781 25 22 25 Z M 22 29 C 21.449219 29 21 29.449219 21 30 C 21 30.550781 21.449219 31 22 31 C 22.550781 31 23 30.550781 23 30 C 23 29.449219 22.550781 29 22 29 Z M 29 32 L 29 34 L 55 34 L 55 32 Z M 22 33 C 21.449219 33 21 33.449219 21 34 C 21 34.550781 21.449219 35 22 35 C 22.550781 35 23 34.550781 23 34 C 23 33.449219 22.550781 33 22 33 Z M 22 37 C 21.449219 37 21 37.449219 21 38 C 21 38.550781 21.449219 39 22 39 C 22.550781 39 23 38.550781 23 38 C 23 37.449219 22.550781 37 22 37 Z M 30 40 C 29.449219 40 29 40.449219 29 41 C 29 41.550781 29.449219 42 30 42 C 30.550781 42 31 41.550781 31 41 C 31 40.449219 30.550781 40 30 40 Z M 34 40 L 34 42 L 55 42 L 55 40 Z M 22 41 C 21.449219 41 21 41.449219 21 42 C 21 42.550781 21.449219 43 22 43 C 22.550781 43 23 42.550781 23 42 C 23 41.449219 22.550781 41 22 41 Z M 22 45 C 21.449219 45 21 45.449219 21 46 C 21 46.550781 21.449219 47 22 47 C 22.550781 47 23 46.550781 23 46 C 23 45.449219 22.550781 45 22 45 Z M 30 46 C 29.449219 46 29 46.449219 29 47 C 29 47.550781 29.449219 48 30 48 C 30.550781 48 31 47.550781 31 47 C 31 46.449219 30.550781 46 30 46 Z M 34 46 L 34 48 L 55 48 L 55 46 Z M 22 49 C 21.449219 49 21 49.449219 21 50 C 21 50.550781 21.449219 51 22 51 C 22.550781 51 23 50.550781 23 50 C 23 49.449219 22.550781 49 22 49 Z M 30 52 C 29.449219 52 29 52.449219 29 53 C 29 53.550781 29.449219 54 30 54 C 30.550781 54 31 53.550781 31 53 C 31 52.449219 30.550781 52 30 52 Z M 34 52 L 34 54 L 55 54 L 55 52 Z M 22 53 C 21.449219 53 21 53.449219 21 54 C 21 54.550781 21.449219 55 22 55 C 22.550781 55 23 54.550781 23 54 C 23 53.449219 22.550781 53 22 53 Z M 22 57 C 21.449219 57 21 57.449219 21 58 C 21 58.550781 21.449219 59 22 59 C 22.550781 59 23 58.550781 23 58 C 23 57.449219 22.550781 57 22 57 Z M 30 58 C 29.449219 58 29 58.449219 29 59 C 29 59.550781 29.449219 60 30 60 C 30.550781 60 31 59.550781 31 59 C 31 58.449219 30.550781 58 30 58 Z M 34 58 L 34 60 L 55 60 L 55 58 Z M 22 61 C 21.449219 61 21 61.449219 21 62 C 21 62.550781 21.449219 63 22 63 C 22.550781 63 23 62.550781 23 62 C 23 61.449219 22.550781 61 22 61 Z M 22 65 C 21.449219 65 21 65.449219 21 66 C 21 66.550781 21.449219 67 22 67 C 22.550781 67 23 66.550781 23 66 C 23 65.449219 22.550781 65 22 65 Z"/></svg>