<svg xmlns="http://www.w3.org/2000/svg" viewBox="0 0 128 128" width="64px" height="64px"><path fill="#fff" d="M64 14A50 50 0 1 0 64 114A50 50 0 1 0 64 14Z"/><path fill="#CCCCCC" d="M64,117c-29.2,0-53-23.8-53-53s23.8-53,53-53s53,23.8,53,53S93.2,117,64,117z M64,17c-25.9,0-47,21.1-47,47s21.1,47,47,47s47-21.1,47-47S89.9,17,64,17z"/><path fill="#CCCCCC" d="M57 79.5c-1.7 0-3-1.3-3-3v-25c0-1.7 1.3-3 3-3s3 1.3 3 3v25C60 78.2 58.7 79.5 57 79.5zM71 79.5c-1.7 0-3-1.3-3-3v-25c0-1.7 1.3-3 3-3s3 1.3 3 3v25C74 78.2 72.7 79.5 71 79.5z"/></svg>