<?xml version="1.0" encoding="UTF-8"?>
<svg xmlns="http://www.w3.org/2000/svg" xmlns:xlink="http://www.w3.org/1999/xlink" width="64pt" height="64pt" viewBox="0 0 64 64" version="1.1">
<g id="surface2698201">
<path style=" stroke:none;fill-rule:nonzero;fill:rgb(34.117647%,14.117647%,77.647059%);fill-opacity:1;" d="M 32 7 C 18.191406 7 7 18.191406 7 32 C 7 45.808594 18.191406 57 32 57 C 45.808594 57 57 45.808594 57 32 C 57 18.191406 45.808594 7 32 7 Z M 32 7 "/>
<path style=" stroke:none;fill-rule:nonzero;fill:rgb(100%,100%,100%);fill-opacity:1;" d="M 32 58.5 C 17.398438 58.5 5.5 46.601562 5.5 32 C 5.5 17.398438 17.398438 5.5 32 5.5 C 46.601562 5.5 58.5 17.398438 58.5 32 C 58.5 46.601562 46.601562 58.5 32 58.5 Z M 32 8.5 C 19.050781 8.5 8.5 19.050781 8.5 32 C 8.5 44.949219 19.050781 55.5 32 55.5 C 44.949219 55.5 55.5 44.949219 55.5 32 C 55.5 19.050781 44.949219 8.5 32 8.5 Z M 32 8.5 "/>
<path style=" stroke:none;fill-rule:nonzero;fill:rgb(100%,100%,100%);fill-opacity:1;" d="M 28.5 39.75 C 27.648438 39.75 27 39.101562 27 38.25 L 27 25.75 C 27 24.898438 27.648438 24.25 28.5 24.25 C 29.351562 24.25 30 24.898438 30 25.75 L 30 38.25 C 30 39.101562 29.351562 39.75 28.5 39.75 Z M 35.5 39.75 C 34.648438 39.75 34 39.101562 34 38.25 L 34 25.75 C 34 24.898438 34.648438 24.25 35.5 24.25 C 36.351562 24.25 37 24.898438 37 25.75 L 37 38.25 C 37 39.101562 36.351562 39.75 35.5 39.75 Z M 35.5 39.75 "/>
</g>
</svg>
