<?xml version="1.0"?>
<svg xmlns="http://www.w3.org/2000/svg" xmlns:xlink="http://www.w3.org/1999/xlink" version="1.1" viewBox="0 0 192 192" width="96px" height="96px"><g fill="none" fill-rule="nonzero" stroke="none" stroke-width="1" stroke-linecap="butt" stroke-linejoin="miter" stroke-miterlimit="10" stroke-dasharray="" stroke-dashoffset="0" font-family="none" font-weight="none" font-size="none" text-anchor="none" style="mix-blend-mode: normal"><path d="M0,192v-192h192v192z" fill="none"/><g id="&#x421;&#x43B;&#x43E;&#x439;_1" fill="#5724c6"><path d="M96,159.003c-19.074,0 -38.148,-0.585 -57.897,-1.752c-14.88,-0.879 -26.883,-12.726 -27.924,-27.561c-1.563,-22.356 -1.563,-45.027 -0.003,-67.38c1.044,-14.835 13.047,-26.685 27.927,-27.564c39.501,-2.334 76.299,-2.334 115.794,0c14.88,0.879 26.883,12.726 27.924,27.561c1.563,22.356 1.563,45.027 0.003,67.38c-1.044,14.835 -13.047,26.685 -27.927,27.564v0c-19.749,1.167 -38.823,1.752 -57.897,1.752zM153.546,151.263l0.177,2.994l-0.177,-2.994c11.877,-0.702 21.459,-10.158 22.293,-21.993c1.545,-22.074 1.545,-44.463 -0.003,-66.543c-0.828,-11.832 -10.413,-21.288 -22.29,-21.99c-39.264,-2.319 -75.825,-2.319 -115.089,0c-11.877,0.702 -21.459,10.158 -22.293,21.993c-1.545,22.074 -1.545,44.463 0.003,66.543c0.828,11.832 10.413,21.288 22.29,21.99c39.261,2.319 75.825,2.319 115.089,0z"/><path d="M75,119.52v-47.04l40.32,23.52z"/><path d="M72,124.743v-57.486l49.275,28.743zM78,77.703v36.591l31.368,-18.294z"/></g></g></svg>
