<svg fill="#5724C6" xmlns="http://www.w3.org/2000/svg" viewBox="0 0 64 64" width="64px" height="64px"><path d="M 32 0 C 24.28125 0 18 6.28125 18 14 L 18 22 L 13 22 C 11.898438 22 11 22.898438 11 24 L 11 26 C 11 27.101563 11.898438 28 13 28 L 14 28 L 14 30 C 14 38.550781 19.996094 45.710938 28 47.535156 L 28 52 L 25.65625 52 C 24.320313 52 23.066406 52.519531 22.121094 53.464844 L 19.585938 56 L 15 56 C 13.347656 56 12 57.347656 12 59 C 12 60.652344 13.347656 62 15 62 L 44.105469 62 C 46.105469 63.261719 48.464844 64 51 64 C 58.167969 64 64 58.167969 64 51 C 64 43.832031 58.167969 38 51 38 C 49.929688 38 48.894531 38.144531 47.898438 38.390625 C 49.230469 35.882813 50 33.03125 50 30 L 50 28 L 51 28 C 52.101563 28 53 27.101563 53 26 L 53 24 C 53 22.898438 52.101563 22 51 22 L 46 22 L 46 14 C 46 6.28125 39.71875 0 32 0 Z M 32 2 C 37.214844 2 41.648438 5.347656 43.300781 10 L 37 10 C 36.445313 10 36 10.449219 36 11 C 36 11.550781 36.445313 12 37 12 L 43.816406 12 C 43.929688 12.652344 44 13.316406 44 14 L 37 14 C 36.445313 14 36 14.449219 36 15 C 36 15.550781 36.445313 16 37 16 L 44 16 L 44 18 L 37 18 C 36.445313 18 36 18.449219 36 19 C 36 19.550781 36.445313 20 37 20 L 44 20 L 44 30 C 44 36.617188 38.617188 42 32 42 C 25.382813 42 20 36.617188 20 30 L 20 20 L 27 20 C 27.554688 20 28 19.550781 28 19 C 28 18.449219 27.554688 18 27 18 L 20 18 L 20 16 L 27 16 C 27.554688 16 28 15.550781 28 15 C 28 14.449219 27.554688 14 27 14 L 20 14 C 20 13.316406 20.070313 12.652344 20.183594 12 L 27 12 C 27.554688 12 28 11.550781 28 11 C 28 10.449219 27.554688 10 27 10 L 20.699219 10 C 22.351563 5.347656 26.785156 2 32 2 Z M 22 23 C 21.445313 23 21 23.449219 21 24 L 21 26 C 21 26.550781 21.445313 27 22 27 C 22.554688 27 23 26.550781 23 26 L 23 24 C 23 23.449219 22.554688 23 22 23 Z M 27 23 C 26.445313 23 26 23.449219 26 24 L 26 26 C 26 26.550781 26.445313 27 27 27 C 27.554688 27 28 26.550781 28 26 L 28 24 C 28 23.449219 27.554688 23 27 23 Z M 32 23 C 31.445313 23 31 23.449219 31 24 L 31 26 C 31 26.550781 31.445313 27 32 27 C 32.554688 27 33 26.550781 33 26 L 33 24 C 33 23.449219 32.554688 23 32 23 Z M 37 23 C 36.445313 23 36 23.449219 36 24 L 36 26 C 36 26.550781 36.445313 27 37 27 C 37.554688 27 38 26.550781 38 26 L 38 24 C 38 23.449219 37.554688 23 37 23 Z M 42 23 C 41.445313 23 41 23.449219 41 24 L 41 26 C 41 26.550781 41.445313 27 42 27 C 42.554688 27 43 26.550781 43 26 L 43 24 C 43 23.449219 42.554688 23 42 23 Z M 13 24 L 18 24 L 18 26 L 13 26 Z M 46 24 L 51 24 L 51 26 L 46 26 Z M 16 28 L 18 28 L 18 30 C 18 37.71875 24.28125 44 32 44 C 39.71875 44 46 37.71875 46 30 L 46 28 L 48 28 L 48 30 C 48 33.601563 46.789063 36.914063 44.777344 39.59375 C 42.972656 40.578125 41.429688 41.980469 40.273438 43.667969 C 37.855469 45.136719 35.03125 46 32 46 C 23.179688 46 16 38.820313 16 30 Z M 51 40 C 57.066406 40 62 44.933594 62 51 C 62 57.066406 57.066406 62 51 62 C 44.933594 62 40 57.066406 40 51 C 40 44.933594 44.933594 40 51 40 Z M 51 44 C 50.445313 44 50 44.449219 50 45 L 50 50 L 45 50 C 44.445313 50 44 50.449219 44 51 C 44 51.550781 44.445313 52 45 52 L 50 52 L 50 57 C 50 57.550781 50.445313 58 51 58 C 51.554688 58 52 57.550781 52 57 L 52 52 L 57 52 C 57.554688 52 58 51.550781 58 51 C 58 50.449219 57.554688 50 57 50 L 52 50 L 52 45 C 52 44.449219 51.554688 44 51 44 Z M 38.761719 46.65625 C 38.277344 48.015625 38 49.476563 38 51 C 38 51.339844 38.023438 51.667969 38.050781 52 L 36 52 L 36 47.535156 C 36.953125 47.316406 37.875 47.019531 38.761719 46.65625 Z M 30 47.882813 C 30.65625 47.957031 31.324219 48 32 48 C 32.675781 48 33.34375 47.957031 34 47.882813 L 34 52 L 30 52 Z M 25.65625 54 L 38.34375 54 C 38.351563 54 38.355469 54 38.363281 54 C 38.527344 54.6875 38.734375 55.359375 39.003906 56 L 22.414063 56 L 23.535156 54.878906 C 24.101563 54.3125 24.855469 54 25.65625 54 Z M 15 58 L 40.0625 58 C 40.523438 58.71875 41.050781 59.386719 41.640625 60 L 15 60 C 14.449219 60 14 59.550781 14 59 C 14 58.449219 14.449219 58 15 58 Z"/></svg>