<?xml version="1.0" encoding="UTF-8"?>
<svg xmlns="http://www.w3.org/2000/svg" xmlns:xlink="http://www.w3.org/1999/xlink" width="50pt" height="50pt" viewBox="0 0 50 50" version="1.1">
<g id="surface2699112">
<path style=" stroke:none;fill-rule:nonzero;fill:rgb(34.117647%,14.117647%,77.647059%);fill-opacity:1;" d="M 17 7 C 16.179688 7 15.609375 7.492188 15.191406 7.960938 C 14.777344 8.433594 14.449219 8.96875 14.136719 9.46875 C 13.820312 9.96875 13.519531 10.4375 13.277344 10.71875 C 13.03125 11 12.914062 11 13 11 L 4 11 C 2.355469 11 1 12.355469 1 14 L 1 40 C 1 41.644531 2.355469 43 4 43 L 46 43 C 47.644531 43 49 41.644531 49 40 L 49 14 C 49 12.355469 47.644531 11 46 11 L 37 11 C 37.085938 11 36.96875 11 36.722656 10.71875 C 36.480469 10.4375 36.179688 9.96875 35.863281 9.46875 C 35.550781 8.96875 35.222656 8.433594 34.808594 7.960938 C 34.390625 7.492188 33.820312 7 33 7 Z M 17 9 L 33 9 C 32.9375 9 33.0625 9.007812 33.308594 9.289062 C 33.554688 9.566406 33.855469 10.03125 34.171875 10.53125 C 34.484375 11.03125 34.804688 11.5625 35.214844 12.03125 C 35.621094 12.5 36.179688 13 37 13 L 46 13 C 46.5625 13 47 13.4375 47 14 L 47 40 C 47 40.5625 46.5625 41 46 41 L 4 41 C 3.4375 41 3 40.5625 3 40 L 3 14 C 3 13.4375 3.4375 13 4 13 L 13 13 C 13.820312 13 14.378906 12.5 14.785156 12.03125 C 15.195312 11.5625 15.515625 11.03125 15.828125 10.53125 C 16.144531 10.03125 16.445312 9.566406 16.691406 9.289062 C 16.9375 9.007812 17.0625 9 17 9 Z M 24.5 11 C 21.472656 11 19 13.472656 19 16.5 L 19 17.847656 C 18.984375 17.953125 18.984375 18.0625 19 18.167969 L 19 21.847656 C 18.984375 21.953125 18.984375 22.0625 19 22.167969 L 19 23.5 C 19 26.527344 21.472656 29 24.5 29 C 27.527344 29 30 26.527344 30 23.5 L 30 22.167969 C 30.019531 22.058594 30.019531 21.949219 30 21.84375 L 30 18.167969 C 30.019531 18.058594 30.019531 17.949219 30 17.84375 L 30 16.5 C 30 13.472656 27.527344 11 24.5 11 Z M 24.5 13 C 26.445312 13 28 14.554688 28 16.5 L 28 17 L 27 17 C 26.640625 16.996094 26.304688 17.183594 26.121094 17.496094 C 25.941406 17.808594 25.941406 18.191406 26.121094 18.503906 C 26.304688 18.816406 26.640625 19.003906 27 19 L 28 19 L 28 21 L 27 21 C 26.640625 20.996094 26.304688 21.183594 26.121094 21.496094 C 25.941406 21.808594 25.941406 22.191406 26.121094 22.503906 C 26.304688 22.816406 26.640625 23.003906 27 23 L 28 23 L 28 23.5 C 28 25.445312 26.445312 27 24.5 27 C 22.554688 27 21 25.445312 21 23.5 L 21 23.003906 L 22.003906 23 C 22.363281 23.003906 22.699219 22.8125 22.878906 22.5 C 23.058594 22.1875 23.058594 21.804688 22.875 21.492188 C 22.691406 21.183594 22.355469 20.992188 21.996094 21 L 21 21.003906 L 21 19.003906 L 22.003906 19 C 22.363281 19.003906 22.699219 18.8125 22.878906 18.5 C 23.058594 18.1875 23.058594 17.804688 22.875 17.492188 C 22.691406 17.183594 22.355469 16.992188 21.996094 17 L 21 17.003906 L 21 16.5 C 21 14.554688 22.554688 13 24.5 13 Z M 15.984375 19.984375 C 15.433594 19.996094 14.992188 20.449219 15 21 L 15 24 C 15 28.554688 18.53125 32.199219 23 32.875 L 23 36 L 19 36 C 17.699219 36 17 37.03125 17 38 L 17 39 L 32 39 L 32 38 C 32 37.03125 31.300781 36 30 36 L 26 36 L 26 32.875 C 30.46875 32.199219 34 28.554688 34 24 L 34 21 C 34.003906 20.640625 33.816406 20.304688 33.503906 20.121094 C 33.191406 19.941406 32.808594 19.941406 32.496094 20.121094 C 32.183594 20.304688 31.996094 20.640625 32 21 L 32 24 C 32 27.914062 28.644531 31 24.5 31 C 20.355469 31 17 27.914062 17 24 L 17 21 C 17.003906 20.730469 16.898438 20.46875 16.707031 20.277344 C 16.515625 20.085938 16.253906 19.980469 15.984375 19.984375 Z M 15.984375 19.984375 "/>
</g>
</svg>
