<?xml version="1.0"?>
<svg xmlns="http://www.w3.org/2000/svg" xmlns:xlink="http://www.w3.org/1999/xlink" version="1.1" viewBox="0 0 192 192" width="80px" height="80px"><g fill="none" fill-rule="nonzero" stroke="none" stroke-width="1" stroke-linecap="butt" stroke-linejoin="miter" stroke-miterlimit="10" stroke-dasharray="" stroke-dashoffset="0" font-family="none" font-weight="none" font-size="none" text-anchor="none" style="mix-blend-mode: normal"><path d="M0,192v-192h192v192z" fill="none"/><g id="Layer_1"><g><path d="M20.1936,170.4l12.3504,-12.3552l-1.5744,-1.6944c-15.3264,-16.464 -23.7696,-37.9008 -23.7696,-60.3504c0,-48.9648 39.8352,-88.8 88.8,-88.8c3.7248,0 7.6704,0.2976 12,0.912v19.3536c-4.0272,-0.7056 -8.0496,-1.0656 -12,-1.0656c-38.376,0 -69.6,31.224 -69.6,69.6c0,17.1744 6.4176,33.7104 18.072,46.5648l1.6944,1.8672l13.8384,-13.8384v39.8064z" fill="#1abc9c"/><path d="M96,9.6c3.0096,0 6.1776,0.2016 9.6,0.6192v14.4432c-3.216,-0.4416 -6.4272,-0.6624 -9.6,-0.6624c-39.7008,0 -72,32.2992 -72,72c0,17.7696 6.6384,34.8816 18.6912,48.1776l3.384,3.7344l3.5664,-3.5664l7.9584,-7.9584v31.6128h-31.6128l6.6192,-6.6192l3.2736,-3.2736l-3.1536,-3.3888c-14.9136,-16.0224 -23.1264,-36.8736 -23.1264,-58.7184c0,-47.64 38.76,-86.4 86.4,-86.4M96,4.8c-50.3664,0 -91.2,40.8336 -91.2,91.2c0,23.9712 9.2832,45.7296 24.4128,61.9872l-14.8128,14.8128h48v-48l-16.152,16.152c-10.7904,-11.904 -17.448,-27.6144 -17.448,-44.952c0,-37.1136 30.0864,-67.2 67.2,-67.2c4.9488,0 9.7584,0.5712 14.4,1.584v-24.3408c-4.704,-0.744 -9.4896,-1.2432 -14.4,-1.2432z" fill="#4e7ab5"/></g><g><path d="M96,184.8c-3.7248,0 -7.6704,-0.2976 -12,-0.912v-19.3536c4.0272,0.7056 8.0496,1.0656 12,1.0656c38.376,0 69.6,-31.224 69.6,-69.6c0,-17.1984 -6.4128,-33.744 -18.0528,-46.5888l-1.6944,-1.8672l-13.8528,13.8624v-39.8064h39.8064l-12.3888,12.3936l1.5744,1.6992c15.3504,16.4928 23.808,37.9104 23.808,60.3072c0,48.9648 -39.8352,88.8 -88.8,88.8z" fill="#1abc9c"/><path d="M166.0128,24l-6.6576,6.6576l-3.2736,3.2736l3.1536,3.3888c14.9376,16.0512 23.1648,36.8928 23.1648,58.68c0,47.64 -38.76,86.4 -86.4,86.4c-3.0096,0 -6.1776,-0.2016 -9.6,-0.6192v-14.4432c3.216,0.4416 6.4272,0.6624 9.6,0.6624c39.7008,0 72,-32.2992 72,-72c0,-17.7984 -6.6288,-34.9152 -18.672,-48.1968l-3.384,-3.7344l-3.5664,3.5664l-7.9776,7.9776v-31.6128h31.6128M177.6,19.2h-48v48l16.1712,-16.1712c10.7952,11.904 17.4288,27.6336 17.4288,44.9712c0,37.1136 -30.0864,67.2 -67.2,67.2c-4.9488,0 -9.7584,-0.5712 -14.4,-1.584v24.3408c4.704,0.744 9.4896,1.2432 14.4,1.2432c50.3664,0 91.2,-40.8336 91.2,-91.2c0,-23.9664 -9.3216,-45.6912 -24.4512,-61.9488l14.8512,-14.8512z" fill="#4e7ab5"/></g></g></g></svg>
