<?xml version="1.0"?>
<svg xmlns="http://www.w3.org/2000/svg" xmlns:xlink="http://www.w3.org/1999/xlink" version="1.1" viewBox="0 0 192 192" width="96px" height="96px"><g fill="none" fill-rule="nonzero" stroke="none" stroke-width="1" stroke-linecap="butt" stroke-linejoin="miter" stroke-miterlimit="10" stroke-dasharray="" stroke-dashoffset="0" font-family="none" font-weight="none" font-size="none" text-anchor="none" style="mix-blend-mode: normal"><path d="M0,192v-192h192v192z" fill="none"/><g fill="#1abc9c"><g id="surface1"><path d="M52,52c0,-13.20312 10.79688,-24 24,-24h40c13.20312,0 24,10.79688 24,24h16c0,-22 -18,-40 -40,-40h-40c-22,0 -40,18 -40,40v44.79688h16z"/><path d="M18.40625,88l25.59375,33.59375l25.59375,-33.59375z"/><path d="M140,140c0,13.20312 -10.79688,24 -24,24h-40c-13.20312,0 -24,-10.79688 -24,-24h-16c0,22 18,40 40,40h40c22,0 40,-18 40,-40v-48h-16z"/><path d="M122.40625,104l25.59375,-33.59375l25.59375,33.59375z"/></g></g></g></svg>
