<?xml version="1.0"?>
<svg xmlns="http://www.w3.org/2000/svg" xmlns:xlink="http://www.w3.org/1999/xlink" version="1.1" viewBox="0 0 192 192" width="96px" height="96px"><g fill="none" fill-rule="nonzero" stroke="none" stroke-width="1" stroke-linecap="butt" stroke-linejoin="miter" stroke-miterlimit="10" stroke-dasharray="" stroke-dashoffset="0" font-family="none" font-weight="none" font-size="none" text-anchor="none" style="mix-blend-mode: normal"><path d="M0,192v-192h192v192z" fill="none"/><g fill="#1abc9c"><g id="surface1"><path d="M96,24c-30.67969,0 -56.29687,18.96094 -66.75,45.75l11.0625,4.5c8.74219,-22.40625 29.95313,-38.25 55.6875,-38.25c19.45313,0 36.79688,9.53906 47.625,24h-23.625v12h42v-42h-12v18.5625c-13.14844,-15.07031 -32.57812,-24.5625 -54,-24.5625zM151.6875,117.75c-8.74219,22.40625 -29.95312,38.25 -55.6875,38.25c-19.66406,0 -36.9375,-9.67969 -47.8125,-24h23.8125v-12h-42v42h12v-18.5625c13.125,14.88281 32.36719,24.5625 54,24.5625c30.67969,0 56.29688,-18.96094 66.75,-45.75z"/></g></g></g></svg>
