<?xml version="1.0"?><svg fill="#CCCCCC" xmlns="http://www.w3.org/2000/svg" viewBox="0 0 100 100" width="100px" height="100px">    <path d="M 24 19 C 20.691 19 18 21.691 18 25 L 18 75 C 18 78.309 20.691 81 24 81 L 61.447266 81 C 63.911266 86.305 69.276 90 75.5 90 C 84.047 90 91 83.047 91 74.5 C 91 68.276 87.305 62.911266 82 60.447266 L 82 36 C 82 35.725 81.885547 35.461484 81.685547 35.271484 L 64.685547 19.271484 C 64.499547 19.098484 64.255 19 64 19 L 24 19 z M 24 21 L 40 21 L 40 30.5 C 40 31.879 41.121 33 42.5 33 L 60.5 33 C 61.879 33 63 31.879 63 30.5 L 63 21 L 63.603516 21 L 80 36.431641 L 80 59.671875 C 78.575 59.237875 77.065 59 75.5 59 C 74.647 59 73.816 59.086703 73 59.220703 L 73 45.5 C 73 41.916 70.084 39 66.5 39 L 33.5 39 C 29.916 39 27 41.916 27 45.5 L 27 79 L 24 79 C 21.794 79 20 77.206 20 75 L 20 25 C 20 22.794 21.794 21 24 21 z M 41 21 L 62 21 L 62 30.5 C 62 31.327 61.327 32 60.5 32 L 42.5 32 C 41.673 32 41 31.327 41 30.5 L 41 21 z M 55.5 23 C 55.224 23 55 23.224 55 23.5 L 55 29.5 C 55 29.776 55.224 30 55.5 30 L 58.5 30 C 58.776 30 59 29.776 59 29.5 L 59 23.5 C 59 23.224 58.776 23 58.5 23 L 55.5 23 z M 56 24 L 58 24 L 58 29 L 56 29 L 56 24 z M 33.5 40 L 66.5 40 C 69.532 40 72 42.468 72 45.5 L 72 59.412109 C 70.548 59.749109 69.174156 60.286 67.910156 61 L 33.5 61 C 33.224 61 33 61.224 33 61.5 C 33 61.776 33.224 62 33.5 62 L 66.373047 62 C 64.561047 63.327 63.041312 65.027 61.945312 67 L 31.5 67 C 31.224 67 31 67.224 31 67.5 C 31 67.776 31.224 68 31.5 68 L 61.447266 68 C 60.527266 69.98 60 72.177 60 74.5 C 60 76.065 60.238875 77.575 60.671875 79 L 28 79 L 28 45.5 C 28 42.468 30.468 40 33.5 40 z M 31.5 49 C 31.224 49 31 49.224 31 49.5 C 31 49.776 31.224 50 31.5 50 L 54.5 50 C 54.776 50 55 49.776 55 49.5 C 55 49.224 54.776 49 54.5 49 L 31.5 49 z M 58.5 49 C 58.224 49 58 49.224 58 49.5 C 58 49.776 58.224 50 58.5 50 L 68.5 50 C 68.776 50 69 49.776 69 49.5 C 69 49.224 68.776 49 68.5 49 L 58.5 49 z M 31.5 55 C 31.224 55 31 55.224 31 55.5 C 31 55.776 31.224 56 31.5 56 L 60.5 56 C 60.776 56 61 55.776 61 55.5 C 61 55.224 60.776 55 60.5 55 L 31.5 55 z M 63.5 55 C 63.224 55 63 55.224 63 55.5 C 63 55.776 63.224 56 63.5 56 L 65.5 56 C 65.776 56 66 55.776 66 55.5 C 66 55.224 65.776 55 65.5 55 L 63.5 55 z M 67.5 55 C 67.224 55 67 55.224 67 55.5 C 67 55.776 67.224 56 67.5 56 L 68.5 56 C 68.776 56 69 55.776 69 55.5 C 69 55.224 68.776 55 68.5 55 L 67.5 55 z M 75.5 61 C 82.944 61 89 67.056 89 74.5 C 89 81.944 82.944 88 75.5 88 C 68.056 88 62 81.944 62 74.5 C 62 67.056 68.056 61 75.5 61 z M 84.525391 69.001953 C 84.397391 68.996203 84.266063 69.038859 84.164062 69.130859 L 73.484375 78.837891 L 67.820312 74.115234 C 67.608312 73.940234 67.293234 73.966688 67.115234 74.179688 C 66.938234 74.391688 66.968688 74.707766 67.179688 74.884766 L 73.179688 79.884766 C 73.272688 79.960766 73.387 80 73.5 80 C 73.621 80 73.740938 79.956141 73.835938 79.869141 L 84.835938 69.869141 C 85.040937 69.683141 85.055141 69.367109 84.869141 69.162109 C 84.777141 69.060109 84.653391 69.007703 84.525391 69.001953 z"/></svg>