<?xml version="1.0" encoding="UTF-8"?>
<svg xmlns="http://www.w3.org/2000/svg" xmlns:xlink="http://www.w3.org/1999/xlink" viewBox="0 0 64 64" version="1.1" fill="#cccccc" width="128px" height="128px">
<g id="surface1" fill="#cccccc">
<path style=" " d="M 3 6 C 1.347656 6 0 7.347656 0 9 L 0 50 C 0 52.207031 1.792969 54 4 54 L 52.695313 54 C 54.503906 54 56.09375 52.78125 56.5625 51.015625 L 63.355469 23.722656 C 63.578125 22.820313 63.378906 21.882813 62.808594 21.152344 C 62.234375 20.421875 61.371094 20 60.441406 20 L 54 20 L 54 15 C 54 13.347656 52.652344 12 51 12 L 25.707031 12 C 24.910156 12 24.164063 11.691406 23.597656 11.132813 L 19.871094 7.445313 C 18.929688 6.511719 17.679688 6 16.355469 6 Z M 3 8 L 16.355469 8 C 17.152344 8 17.898438 8.308594 18.464844 8.867188 L 22.1875 12.550781 C 23.132813 13.484375 24.382813 14 25.707031 14 L 51 14 C 51.550781 14 52 14.449219 52 15 L 52 20 L 16.511719 20 C 14.667969 20 13.074219 21.25 12.628906 23.035156 L 6.011719 49.699219 C 6.007813 49.71875 5.460938 52 4 52 C 2.898438 52 2 51.101563 2 50 L 2 9 C 2 8.449219 2.449219 8 3 8 Z M 16.511719 22 L 60.441406 22 C 60.753906 22 61.039063 22.140625 61.230469 22.386719 C 61.421875 22.628906 61.488281 22.9375 61.410156 23.238281 L 54.628906 50.515625 C 54.394531 51.390625 53.601563 52 52.695313 52 L 7.210938 52 C 7.597656 51.363281 7.839844 50.6875 7.960938 50.15625 L 9.484375 44 L 45 44 C 45.554688 44 46 43.554688 46 43 C 46 42.445313 45.554688 42 45 42 L 9.984375 42 L 14.570313 23.519531 C 14.792969 22.625 15.589844 22 16.511719 22 Z M 49 42 C 48.445313 42 48 42.445313 48 43 C 48 43.554688 48.445313 44 49 44 L 53 44 C 53.554688 44 54 43.554688 54 43 C 54 42.445313 53.554688 42 53 42 Z M 11.34375 46.011719 C 10.960938 46.070313 10.628906 46.355469 10.53125 46.757813 L 10.03125 48.757813 C 9.894531 49.292969 10.222656 49.835938 10.757813 49.96875 C 10.839844 49.992188 10.921875 50 11 50 C 11.449219 50 11.855469 49.695313 11.96875 49.242188 L 12.46875 47.242188 C 12.605469 46.707031 12.277344 46.164063 11.742188 46.03125 C 11.609375 45.996094 11.472656 45.988281 11.34375 46.011719 Z M 16.34375 46.011719 C 15.960938 46.070313 15.628906 46.355469 15.53125 46.757813 L 15.03125 48.757813 C 14.894531 49.292969 15.222656 49.835938 15.757813 49.96875 C 15.839844 49.992188 15.921875 50 16 50 C 16.449219 50 16.855469 49.695313 16.96875 49.242188 L 17.46875 47.242188 C 17.605469 46.707031 17.277344 46.164063 16.742188 46.03125 C 16.609375 45.996094 16.472656 45.988281 16.34375 46.011719 Z M 21.34375 46.011719 C 20.960938 46.070313 20.628906 46.355469 20.53125 46.757813 L 20.03125 48.757813 C 19.894531 49.292969 20.222656 49.835938 20.757813 49.96875 C 20.839844 49.992188 20.921875 50 21 50 C 21.449219 50 21.855469 49.695313 21.96875 49.242188 L 22.46875 47.242188 C 22.605469 46.707031 22.277344 46.164063 21.742188 46.03125 C 21.609375 45.996094 21.472656 45.988281 21.34375 46.011719 Z M 26.34375 46.011719 C 25.960938 46.070313 25.628906 46.355469 25.53125 46.757813 L 25.03125 48.757813 C 24.894531 49.292969 25.222656 49.835938 25.757813 49.96875 C 25.839844 49.992188 25.921875 50 26 50 C 26.449219 50 26.855469 49.695313 26.96875 49.242188 L 27.46875 47.242188 C 27.605469 46.707031 27.277344 46.164063 26.742188 46.03125 C 26.609375 45.996094 26.472656 45.988281 26.34375 46.011719 Z M 31.34375 46.011719 C 30.960938 46.070313 30.628906 46.355469 30.53125 46.757813 L 30.03125 48.757813 C 29.894531 49.292969 30.222656 49.835938 30.757813 49.96875 C 30.839844 49.992188 30.921875 50 31 50 C 31.449219 50 31.855469 49.695313 31.96875 49.242188 L 32.46875 47.242188 C 32.605469 46.707031 32.277344 46.164063 31.742188 46.03125 C 31.609375 45.996094 31.472656 45.988281 31.34375 46.011719 Z M 36.34375 46.011719 C 35.960938 46.070313 35.628906 46.355469 35.53125 46.757813 L 35.03125 48.757813 C 34.894531 49.292969 35.222656 49.835938 35.757813 49.96875 C 35.839844 49.992188 35.921875 50 36 50 C 36.449219 50 36.855469 49.695313 36.96875 49.242188 L 37.46875 47.242188 C 37.605469 46.707031 37.277344 46.164063 36.742188 46.03125 C 36.609375 45.996094 36.472656 45.988281 36.34375 46.011719 Z M 41.34375 46.011719 C 40.960938 46.070313 40.628906 46.355469 40.53125 46.757813 L 40.03125 48.757813 C 39.894531 49.292969 40.222656 49.835938 40.757813 49.96875 C 40.839844 49.992188 40.921875 50 41 50 C 41.449219 50 41.855469 49.695313 41.96875 49.242188 L 42.46875 47.242188 C 42.605469 46.707031 42.277344 46.164063 41.742188 46.03125 C 41.609375 45.996094 41.472656 45.988281 41.34375 46.011719 Z M 46.34375 46.011719 C 45.957031 46.070313 45.628906 46.355469 45.53125 46.757813 L 45.03125 48.757813 C 44.894531 49.292969 45.222656 49.835938 45.757813 49.96875 C 45.839844 49.992188 45.921875 50 46 50 C 46.449219 50 46.855469 49.695313 46.96875 49.242188 L 47.46875 47.242188 C 47.605469 46.707031 47.277344 46.164063 46.742188 46.03125 C 46.609375 45.996094 46.472656 45.988281 46.34375 46.011719 Z M 51.34375 46.011719 C 50.960938 46.070313 50.628906 46.355469 50.53125 46.757813 L 50.03125 48.757813 C 49.894531 49.292969 50.222656 49.835938 50.757813 49.96875 C 50.839844 49.992188 50.921875 50 51 50 C 51.449219 50 51.855469 49.695313 51.96875 49.242188 L 52.46875 47.242188 C 52.605469 46.707031 52.277344 46.164063 51.742188 46.03125 C 51.609375 45.996094 51.472656 45.988281 51.34375 46.011719 Z " fill="#cccccc"/>
</g>
</svg>
