<?xml version="1.0" encoding="UTF-8"?>
<svg xmlns="http://www.w3.org/2000/svg" xmlns:xlink="http://www.w3.org/1999/xlink" width="64pt" height="64pt" viewBox="0 0 64 64" version="1.1">
<g id="surface2672029">
<path style=" stroke:none;fill-rule:nonzero;fill:rgb(34.117647%,14.117647%,77.647059%);fill-opacity:1;" d="M 21.660156 2 C 20.320312 2 19.058594 2.519531 18.121094 3.460938 L 9.460938 12.121094 C 8.519531 13.070312 8 14.320312 8 15.660156 L 8 55 C 8 56.648438 9.351562 58 11 58 L 40.050781 58 L 39.378906 60.769531 C 39.28125 61.160156 39.429688 61.570312 39.761719 61.8125 C 40.089844 62.050781 40.539062 62.058594 40.878906 61.847656 L 49 56.75 L 57.121094 61.847656 C 57.277344 61.949219 57.46875 62 57.652344 62 C 57.859375 62 58.058594 61.941406 58.238281 61.8125 C 58.570312 61.570312 58.71875 61.160156 58.621094 60.769531 L 56.390625 51.511719 L 63.660156 45.0625 C 63.960938 44.800781 64.070312 44.378906 63.949219 44 C 63.828125 43.621094 63.488281 43.351562 63.089844 43.320312 L 54 42.480469 L 54 5 C 54 3.351562 52.648438 2 51 2 Z M 22 4 L 51 4 C 51.550781 4 52 4.449219 52 5 L 52 38.78125 L 49.929688 33.628906 C 49.78125 33.25 49.410156 33 49 33 C 48.589844 33 48.21875 33.25 48.070312 33.628906 L 44.53125 42.429688 L 34.910156 43.320312 C 34.511719 43.351562 34.171875 43.621094 34.050781 44 C 33.929688 44.378906 34.039062 44.800781 34.339844 45.0625 L 41.609375 51.511719 L 40.53125 56 L 11 56 C 10.449219 56 10 55.550781 10 55 L 10 16 L 19 16 C 20.652344 16 22 14.652344 22 13 Z M 20 4.5 L 20 13 C 20 13.550781 19.550781 14 19 14 L 10.5 14 C 10.613281 13.835938 10.738281 13.679688 10.878906 13.539062 L 19.539062 4.882812 C 19.679688 4.738281 19.835938 4.609375 20 4.5 Z M 17 22 C 16.445312 22 16 22.445312 16 23 C 16 23.554688 16.445312 24 17 24 L 35 24 C 35.554688 24 36 23.554688 36 23 C 36 22.445312 35.554688 22 35 22 Z M 39 22 C 38.445312 22 38 22.445312 38 23 C 38 23.554688 38.445312 24 39 24 L 43 24 C 43.554688 24 44 23.554688 44 23 C 44 22.445312 43.554688 22 43 22 Z M 17 26 C 16.445312 26 16 26.445312 16 27 C 16 27.554688 16.445312 28 17 28 L 37 28 C 37.554688 28 38 27.554688 38 27 C 38 26.445312 37.554688 26 37 26 Z M 17 32 C 16.445312 32 16 32.445312 16 33 C 16 33.554688 16.445312 34 17 34 L 39 34 C 39.554688 34 40 33.554688 40 33 C 40 32.445312 39.554688 32 39 32 Z M 17 36 C 16.445312 36 16 36.445312 16 37 C 16 37.554688 16.445312 38 17 38 L 34 38 C 34.554688 38 35 37.554688 35 37 C 35 36.445312 34.554688 36 34 36 Z M 49 36.679688 L 51.839844 43.738281 C 51.878906 43.839844 51.929688 43.929688 52 44 C 52.171875 44.210938 52.410156 44.339844 52.679688 44.371094 L 54 44.488281 L 60.609375 45.097656 L 54.621094 50.410156 C 54.339844 50.660156 54.21875 51.03125 54.3125 51.390625 L 56.097656 58.847656 L 49.53125 54.71875 C 49.371094 54.621094 49.179688 54.570312 49 54.570312 C 48.820312 54.570312 48.628906 54.621094 48.46875 54.71875 L 44.929688 56.9375 L 43.25 58 L 41.902344 58.847656 L 42.097656 58 L 42.578125 56 L 43.6875 51.390625 C 43.78125 51.03125 43.660156 50.660156 43.378906 50.410156 L 37.390625 45.097656 L 45.320312 44.371094 C 45.691406 44.328125 46.019531 44.089844 46.160156 43.738281 Z M 13 50 C 12.445312 50 12 50.445312 12 51 L 12 53 C 12 53.554688 12.445312 54 13 54 C 13.554688 54 14 53.554688 14 53 L 14 51 C 14 50.445312 13.554688 50 13 50 Z M 18 50 C 17.445312 50 17 50.445312 17 51 L 17 53 C 17 53.554688 17.445312 54 18 54 C 18.554688 54 19 53.554688 19 53 L 19 51 C 19 50.445312 18.554688 50 18 50 Z M 23 50 C 22.445312 50 22 50.445312 22 51 L 22 53 C 22 53.554688 22.445312 54 23 54 C 23.554688 54 24 53.554688 24 53 L 24 51 C 24 50.445312 23.554688 50 23 50 Z M 28 50 C 27.445312 50 27 50.445312 27 51 L 27 53 C 27 53.554688 27.445312 54 28 54 C 28.554688 54 29 53.554688 29 53 L 29 51 C 29 50.445312 28.554688 50 28 50 Z M 33 50 C 32.445312 50 32 50.445312 32 51 L 32 53 C 32 53.554688 32.445312 54 33 54 C 33.554688 54 34 53.554688 34 53 L 34 51 C 34 50.445312 33.554688 50 33 50 Z M 38 50 C 37.445312 50 37 50.445312 37 51 L 37 53 C 37 53.554688 37.445312 54 38 54 C 38.554688 54 39 53.554688 39 53 L 39 51 C 39 50.445312 38.554688 50 38 50 Z M 38 50 "/>
</g>
</svg>
