<?xml version="1.0" encoding="UTF-8"?>
<svg xmlns="http://www.w3.org/2000/svg" xmlns:xlink="http://www.w3.org/1999/xlink" width="100pt" height="100pt" viewBox="0 0 100 100" version="1.1">
<g id="surface2700121">
<path style=" stroke:none;fill-rule:nonzero;fill:rgb(80%,80%,80%);fill-opacity:1;" d="M 24 19 C 20.691406 19 18 21.691406 18 25 L 18 75 C 18 78.308594 20.691406 81 24 81 L 61.449219 81 C 63.910156 86.304688 69.277344 90 75.5 90 C 84.046875 90 91 83.046875 91 74.5 C 91 68.277344 87.304688 62.910156 82 60.449219 L 82 36 C 82 35.726562 81.886719 35.460938 81.683594 35.269531 L 64.683594 19.269531 C 64.5 19.097656 64.253906 19 64 19 Z M 24 21 L 40 21 L 40 30.5 C 40 31.878906 41.121094 33 42.5 33 L 60.5 33 C 61.878906 33 63 31.878906 63 30.5 L 63 21 L 63.605469 21 L 80 36.429688 L 80 59.671875 C 78.574219 59.238281 77.066406 59 75.5 59 C 74.648438 59 73.816406 59.085938 73 59.21875 L 73 45.5 C 73 41.914062 70.085938 39 66.5 39 L 33.5 39 C 29.914062 39 27 41.914062 27 45.5 L 27 79 L 24 79 C 21.792969 79 20 77.207031 20 75 L 20 25 C 20 22.792969 21.792969 21 24 21 Z M 41 21 L 62 21 L 62 30.5 C 62 31.328125 61.328125 32 60.5 32 L 42.5 32 C 41.671875 32 41 31.328125 41 30.5 Z M 55.5 23 C 55.222656 23 55 23.222656 55 23.5 L 55 29.5 C 55 29.777344 55.222656 30 55.5 30 L 58.5 30 C 58.777344 30 59 29.777344 59 29.5 L 59 23.5 C 59 23.222656 58.777344 23 58.5 23 Z M 56 24 L 58 24 L 58 29 L 56 29 Z M 33.5 40 L 66.5 40 C 69.53125 40 72 42.46875 72 45.5 L 72 59.414062 C 70.546875 59.75 69.175781 60.285156 67.910156 61 L 33.5 61 C 33.222656 61 33 61.222656 33 61.5 C 33 61.777344 33.222656 62 33.5 62 L 66.371094 62 C 64.5625 63.328125 63.042969 65.027344 61.945312 67 L 31.5 67 C 31.222656 67 31 67.222656 31 67.5 C 31 67.777344 31.222656 68 31.5 68 L 61.449219 68 C 60.527344 69.980469 60 72.175781 60 74.5 C 60 76.066406 60.238281 77.574219 60.671875 79 L 28 79 L 28 45.5 C 28 42.46875 30.46875 40 33.5 40 Z M 31.5 49 C 31.222656 49 31 49.222656 31 49.5 C 31 49.777344 31.222656 50 31.5 50 L 54.5 50 C 54.777344 50 55 49.777344 55 49.5 C 55 49.222656 54.777344 49 54.5 49 Z M 58.5 49 C 58.222656 49 58 49.222656 58 49.5 C 58 49.777344 58.222656 50 58.5 50 L 68.5 50 C 68.777344 50 69 49.777344 69 49.5 C 69 49.222656 68.777344 49 68.5 49 Z M 31.5 55 C 31.222656 55 31 55.222656 31 55.5 C 31 55.777344 31.222656 56 31.5 56 L 60.5 56 C 60.777344 56 61 55.777344 61 55.5 C 61 55.222656 60.777344 55 60.5 55 Z M 63.5 55 C 63.222656 55 63 55.222656 63 55.5 C 63 55.777344 63.222656 56 63.5 56 L 65.5 56 C 65.777344 56 66 55.777344 66 55.5 C 66 55.222656 65.777344 55 65.5 55 Z M 67.5 55 C 67.222656 55 67 55.222656 67 55.5 C 67 55.777344 67.222656 56 67.5 56 L 68.5 56 C 68.777344 56 69 55.777344 69 55.5 C 69 55.222656 68.777344 55 68.5 55 Z M 75.5 61 C 82.945312 61 89 67.054688 89 74.5 C 89 81.945312 82.945312 88 75.5 88 C 68.054688 88 62 81.945312 62 74.5 C 62 67.054688 68.054688 61 75.5 61 Z M 84.523438 69.003906 C 84.398438 68.996094 84.265625 69.039062 84.164062 69.132812 L 73.484375 78.839844 L 67.820312 74.117188 C 67.609375 73.941406 67.292969 73.964844 67.113281 74.179688 C 66.9375 74.390625 66.96875 74.707031 67.179688 74.886719 L 73.179688 79.886719 C 73.273438 79.960938 73.386719 80 73.5 80 C 73.621094 80 73.742188 79.957031 73.835938 79.867188 L 84.835938 69.867188 C 85.039062 69.683594 85.054688 69.367188 84.867188 69.160156 C 84.777344 69.058594 84.652344 69.007812 84.523438 69 Z M 84.523438 69.003906 "/>
</g>
</svg>
