<?xml version="1.0" encoding="UTF-8"?>
<svg xmlns="http://www.w3.org/2000/svg" xmlns:xlink="http://www.w3.org/1999/xlink" width="80pt" height="80pt" viewBox="0 0 80 80" version="1.1">
<g id="surface2672276">
<path style=" stroke:none;fill-rule:nonzero;fill:rgb(80%,80%,80%);fill-opacity:1;" d="M 71.585938 7.414062 L 69.683594 8.050781 L 5.667969 29.503906 L 28.582031 43.734375 L 32.703125 46.296875 L 36.605469 52.578125 L 49.496094 73.335938 Z M 68.414062 10.585938 L 48.953125 68.667969 L 38.304688 51.523438 L 34.15625 44.84375 L 29.636719 42.039062 L 10.335938 30.050781 Z M 64 14 C 63.449219 14 63 14.449219 63 15 C 63 15.550781 63.449219 16 64 16 C 64.550781 16 65 15.550781 65 15 C 65 14.449219 64.550781 14 64 14 Z M 61 17 C 60.449219 17 60 17.449219 60 18 C 60 18.550781 60.449219 19 61 19 C 61.550781 19 62 18.550781 62 18 C 62 17.449219 61.550781 17 61 17 Z M 58 20 C 57.449219 20 57 20.449219 57 21 C 57 21.550781 57.449219 22 58 22 C 58.550781 22 59 21.550781 59 21 C 59 20.449219 58.550781 20 58 20 Z M 55 23 C 54.449219 23 54 23.449219 54 24 C 54 24.550781 54.449219 25 55 25 C 55.550781 25 56 24.550781 56 24 C 56 23.449219 55.550781 23 55 23 Z M 52 26 C 51.449219 26 51 26.449219 51 27 C 51 27.550781 51.449219 28 52 28 C 52.550781 28 53 27.550781 53 27 C 53 26.449219 52.550781 26 52 26 Z M 49 29 C 48.449219 29 48 29.449219 48 30 C 48 30.550781 48.449219 31 49 31 C 49.550781 31 50 30.550781 50 30 C 50 29.449219 49.550781 29 49 29 Z M 46 32 C 45.449219 32 45 32.449219 45 33 C 45 33.550781 45.449219 34 46 34 C 46.550781 34 47 33.550781 47 33 C 47 32.449219 46.550781 32 46 32 Z M 43 35 C 42.449219 35 42 35.449219 42 36 C 42 36.550781 42.449219 37 43 37 C 43.550781 37 44 36.550781 44 36 C 44 35.449219 43.550781 35 43 35 Z M 40 38 C 39.449219 38 39 38.449219 39 39 C 39 39.550781 39.449219 40 40 40 C 40.550781 40 41 39.550781 41 39 C 41 38.449219 40.550781 38 40 38 Z M 37 41 C 36.449219 41 36 41.449219 36 42 C 36 42.550781 36.449219 43 37 43 C 37.550781 43 38 42.550781 38 42 C 38 41.449219 37.550781 41 37 41 Z M 37 41 "/>
</g>
</svg>
