<svg fill="#5724C6" xmlns="http://www.w3.org/2000/svg" viewBox="0 0 50 50" width="100px" height="100px"><path d="M 2.800781 0 C 1.265625 0 0 1.265625 0 2.800781 L 0 40 C 0 40.550781 0.449219 41 1 41 L 27 41 C 27.359375 41.003906 27.695313 40.816406 27.878906 40.503906 C 28.058594 40.191406 28.058594 39.808594 27.878906 39.496094 C 27.695313 39.183594 27.359375 38.996094 27 39 L 2 39 L 2 9 L 42 9 L 42 27 C 41.996094 27.359375 42.183594 27.695313 42.496094 27.878906 C 42.808594 28.058594 43.191406 28.058594 43.503906 27.878906 C 43.816406 27.695313 44.003906 27.359375 44 27 L 44 2.800781 C 44 1.265625 42.734375 0 41.199219 0 Z M 2.800781 2 L 41.199219 2 C 41.664063 2 42 2.335938 42 2.800781 L 42 7 L 2 7 L 2 2.800781 C 2 2.335938 2.335938 2 2.800781 2 Z M 7 15 L 7 17 L 11 17 L 11 15 Z M 14 15 L 14 17 L 37 17 L 37 15 Z M 7 20 L 7 22 L 11 22 L 11 20 Z M 14 20 L 14 22 L 37 22 L 37 20 Z M 7 25 L 7 27 L 11 27 L 11 25 Z M 14 25 L 14 27 L 37 27 L 37 25 Z M 7 30 L 7 32 L 11 32 L 11 30 Z M 14 30 L 14 32 L 31.074219 32 C 31.753906 31.242188 32.519531 30.566406 33.371094 30 Z M 39 30 L 39 33 C 38.996094 33.359375 39.183594 33.695313 39.496094 33.875 C 39.808594 34.058594 40.191406 34.058594 40.503906 33.875 C 40.816406 33.695313 41.003906 33.359375 41 33 L 41 32.199219 C 44.957031 32.699219 48 35.890625 48 40 C 48 44.464844 44.464844 48 40 48 C 35.535156 48 32 44.464844 32 40 C 32 37.597656 33.070313 35.464844 34.664063 34.046875 C 34.945313 33.8125 35.078125 33.445313 35.007813 33.085938 C 34.9375 32.726563 34.675781 32.4375 34.328125 32.324219 C 33.980469 32.214844 33.601563 32.300781 33.335938 32.550781 C 31.328125 34.335938 30 37.003906 30 40 C 30 45.535156 34.464844 50 40 50 C 45.535156 50 50 45.535156 50 40 C 50 34.464844 45.535156 30 40 30 Z M 35.988281 34.988281 C 35.582031 34.992188 35.21875 35.238281 35.0625 35.613281 C 34.910156 35.992188 35 36.421875 35.292969 36.707031 L 38.070313 39.484375 C 38.023438 39.652344 38 39.824219 38 40 C 38 41.105469 38.894531 42 40 42 C 41.105469 42 42 41.105469 42 40 C 42 38.894531 41.105469 38 40 38 C 39.824219 38 39.652344 38.023438 39.484375 38.066406 L 36.707031 35.292969 C 36.519531 35.097656 36.261719 34.992188 35.988281 34.988281 Z"/></svg>