<?xml version="1.0" encoding="utf-8"?>
<!-- Generator: Adobe Illustrator 24.0.0, SVG Export Plug-In . SVG Version: 6.00 Build 0)  -->
<svg version="1.1" id="Layer_1" xmlns="http://www.w3.org/2000/svg" xmlns:xlink="http://www.w3.org/1999/xlink" x="0px" y="0px"
	 viewBox="0 0 1280 1024" style="enable-background:new 0 0 1280 1024;" xml:space="preserve">
<style type="text/css">
	.st0{fill:#5724C6;}
	.st1{fill:#0DD39F;}
</style>
<g>
	<path class="st0" d="M340,439.1v-1.4h13.2l30.4,84.4h0.6l30-84.4h13.3v1.4L390.1,539h-12.9L340,439.1z"/>
	<path class="st0" d="M429.6,502.1c0-21.3,10.6-38.4,33.5-38.4s33.5,17.1,33.5,38.4c0,21.1-10.3,38.2-33.5,38.2
		C439.9,540.3,429.6,523.4,429.6,502.1z M484.2,502.1c0-15.9-6.1-27.5-21.1-27.5c-15.1,0-21.1,11.7-21.1,27.5
		c0,15.9,6.2,27.4,21.1,27.4C478.1,529.4,484.2,518,484.2,502.1z"/>
	<path class="st0" d="M513.5,465h12.2v74h-12.2V465z"/>
	<path class="st0" d="M623.3,465h12.2v74h-12.2V465z"/>
	<path class="st0" d="M656.6,465h10.6l1.6,10.3h0.6c3.9-6.5,11.3-11.6,22.3-11.6c19.4,0,31.3,14.5,31.4,38.4
		c-0.1,21.9-10.6,38.2-31.4,38.2c-11,0-18.4-5.1-22.3-11.6h-0.6v43.4h-12.2V465z M710.7,502.1c0-14.9-5.8-27.5-21.1-27.5
		c-14.8,0-21.1,12.7-21.1,27.5c0,14.6,6.4,27.4,21.1,27.4C704.9,529.4,710.7,516.8,710.7,502.1z"/>
	<path class="st0" d="M740.7,431.8h12.2v44.8h0.6c3.9-7.5,11.2-12.9,22.6-12.9c16.4,0,26.2,10.3,26.2,27.2V539h-12.2v-46.2
		c0-11.6-5.6-18.2-17.4-18.2c-12,0-19.8,9-19.8,23.9V539h-12.2V431.8z"/>
	<path class="st0" d="M818.7,502.1c0-21.4,10.6-38.4,33.5-38.4c20.9,0,32,15.5,32,36.1v5.9h-52.7c0,14,7.1,23.8,20.9,23.8
		c9.7,0,16.7-4.1,18.7-11.9h12.2c-2,13.6-15.1,22.7-30.8,22.7C830.5,540.3,818.7,523.8,818.7,502.1z M871.6,495.6
		c0-11.7-6.2-21-19.4-21c-13.9,0-20.1,9.4-20.6,21H871.6z"/>
	<path class="st0" d="M901.6,465h10.6l1,12.5h0.6c3-8.3,10.4-13.3,19.6-13.3h6.7v11.7h-5.8c-14,0-20.4,9.8-20.4,27.2V539h-12.2V465z
		"/>
	<g>
		<path class="st0" d="M554.5,501.9c0-15.1,6-27.4,21.1-27.4c10.7,0,17.5,5.9,18.2,15.8H606c-1-14.9-10.6-26.6-30.4-26.6
			c-22,0-33.4,15.3-33.5,38.2H554.5z"/>
		<path class="st1" d="M575.6,529.6c-10.9,0-17.1-6.2-19.6-15.5h-12.6c3.4,16.3,14.4,26.2,32.4,26.2c19.3,0,29.1-10.6,30.6-26.2
			h-12.2C593.1,523.9,586.6,529.6,575.6,529.6z"/>
	</g>
	<path class="st1" d="M620.9,442.3c0-5.1,2.8-8.4,8.4-8.4c5.5,0,8.4,3.3,8.4,8.4c0,5.2-2.9,8.5-8.4,8.5
		C623.7,450.8,620.9,447.5,620.9,442.3z"/>
	<path class="st1" d="M511.2,442.3c0-5.1,2.8-8.4,8.4-8.4c5.5,0,8.4,3.3,8.4,8.4c0,5.2-2.9,8.5-8.4,8.5
		C513.9,450.8,511.2,447.5,511.2,442.3z"/>
</g>
</svg>
