<svg width="605" height="145" xmlns="http://www.w3.org/2000/svg">
 <style type="text/css">.st0{fill:#5724C6;}
	.st1{fill:#0DD39F;}</style>

 <g>
  <title>background</title>
  <rect fill="none" id="canvas_background" height="147" width="607" y="-1" x="-1"/>
 </g>
 <g>
  <title>Layer 1</title>
  <g id="svg_1">
   <path id="svg_2" d="m2,9.3l0,-1.4l13.2,0l30.4,84.4l0.6,0l30,-84.4l13.3,0l0,1.4l-37.4,99.9l-12.9,0l-37.2,-99.9z" class="st0"/>
   <path id="svg_3" d="m91.6,72.3c0,-21.3 10.6,-38.4 33.5,-38.4s33.5,17.1 33.5,38.4c0,21.1 -10.3,38.2 -33.5,38.2c-23.2,0 -33.5,-16.9 -33.5,-38.2zm54.6,0c0,-15.9 -6.1,-27.5 -21.1,-27.5c-15.1,0 -21.1,11.7 -21.1,27.5c0,15.9 6.2,27.4 21.1,27.4c15,-0.1 21.1,-11.5 21.1,-27.4z" class="st0"/>
   <path id="svg_4" d="m175.5,35.2l12.2,0l0,74l-12.2,0l0,-74z" class="st0"/>
   <path id="svg_5" d="m285.3,35.2l12.2,0l0,74l-12.2,0l0,-74z" class="st0"/>
   <path id="svg_6" d="m318.6,35.2l10.6,0l1.6,10.3l0.6,0c3.9,-6.5 11.3,-11.6 22.3,-11.6c19.4,0 31.3,14.5 31.4,38.4c-0.1,21.9 -10.6,38.2 -31.4,38.2c-11,0 -18.4,-5.1 -22.3,-11.6l-0.6,0l0,43.4l-12.2,0l0,-107.1zm54.1,37.1c0,-14.9 -5.8,-27.5 -21.1,-27.5c-14.8,0 -21.1,12.7 -21.1,27.5c0,14.6 6.4,27.4 21.1,27.4c15.3,-0.1 21.1,-12.7 21.1,-27.4z" class="st0"/>
   <path id="svg_7" d="m402.7,2l12.2,0l0,44.8l0.6,0c3.9,-7.5 11.2,-12.9 22.6,-12.9c16.4,0 26.2,10.3 26.2,27.2l0,48.1l-12.2,0l0,-46.2c0,-11.6 -5.6,-18.2 -17.4,-18.2c-12,0 -19.8,9 -19.8,23.9l0,40.5l-12.2,0l0,-107.2z" class="st0"/>
   <path id="svg_8" d="m480.7,72.3c0,-21.4 10.6,-38.4 33.5,-38.4c20.9,0 32,15.5 32,36.1l0,5.9l-52.7,0c0,14 7.1,23.8 20.9,23.8c9.7,0 16.7,-4.1 18.7,-11.9l12.2,0c-2,13.6 -15.1,22.7 -30.8,22.7c-22,0 -33.8,-16.5 -33.8,-38.2zm52.9,-6.5c0,-11.7 -6.2,-21 -19.4,-21c-13.9,0 -20.1,9.4 -20.6,21l40,0z" class="st0"/>
   <path id="svg_9" d="m563.6,35.2l10.6,0l1,12.5l0.6,0c3,-8.3 10.4,-13.3 19.6,-13.3l6.7,0l0,11.7l-5.8,0c-14,0 -20.4,9.8 -20.4,27.2l0,35.9l-12.2,0l0,-74l-0.1,0z" class="st0"/>
   <g id="svg_10">
    <path id="svg_11" d="m216.5,72.1c0,-15.1 6,-27.4 21.1,-27.4c10.7,0 17.5,5.9 18.2,15.8l12.2,0c-1,-14.9 -10.6,-26.6 -30.4,-26.6c-22,0 -33.4,15.3 -33.5,38.2l12.4,0z" class="st0"/>
    <path id="svg_12" d="m237.6,99.8c-10.9,0 -17.1,-6.2 -19.6,-15.5l-12.6,0c3.4,16.3 14.4,26.2 32.4,26.2c19.3,0 29.1,-10.6 30.6,-26.2l-12.2,0c-1.1,9.8 -7.6,15.5 -18.6,15.5z" class="st1"/>
   </g>
   <path id="svg_13" d="m282.9,12.5c0,-5.1 2.8,-8.4 8.4,-8.4c5.5,0 8.4,3.3 8.4,8.4c0,5.2 -2.9,8.5 -8.4,8.5c-5.6,0 -8.4,-3.3 -8.4,-8.5z" class="st1"/>
   <path id="svg_14" d="m173.2,12.5c0,-5.1 2.8,-8.4 8.4,-8.4c5.5,0 8.4,3.3 8.4,8.4c0,5.2 -2.9,8.5 -8.4,8.5c-5.7,0 -8.4,-3.3 -8.4,-8.5z" class="st1"/>
  </g>
 </g>
</svg>